# xmcd
# 
# Track frame offsets:
#     150
#     15079
#     30427
#     47318
#     64854
#     80965
#     100988
#     119299
#     136395
#     151244
#     167075
#     186052
#     208036
# 
# Disc length: 3000
# 
# Revision: 1
# Processed by: cddbd v1.5.2PL0 Copyright (c) Steve Scherf et al.
# Submitted via: fre:ac v1.1beta1pre5
# 
DISCID=a00bb60d
DTITLE=Andra Day - Cheers To The Fall
DYEAR=2015
DGENRE=Soul
TTITLE0=Forever Mine
TTITLE1=Only Love
TTITLE2=Gold
TTITLE3=Not Today
TTITLE4=Mistakes
TTITLE5=Goodbye Goodnight
TTITLE6=Rearview
TTITLE7=Red Flags
TTITLE8=Honey Or Fire
TTITLE9=Gin and Juice (Let Go My Hand)
TTITLE10=Rise Up
TTITLE11=City Burns
TTITLE12=Cheers To The Fall
EXTD=
EXTT0=
EXTT1=
EXTT2=
EXTT3=
EXTT4=
EXTT5=
EXTT6=
EXTT7=
EXTT8=
EXTT9=
EXTT10=
EXTT11=
EXTT12=
PLAYORDER=
